<svg xmlns="http://www.w3.org/2000/svg" width="240" height="240" style="width:100%;height:100%;transform:translate3d(0,0,0);content-visibility:visible" viewBox="0 0 240 240"><defs><clipPath id="a"><path d="M0 0h240v240H0z"/></clipPath><clipPath id="e"><path d="M0 0h240v240H0z"/></clipPath><clipPath id="d"><path d="M0 0h240v240H0z"/></clipPath><clipPath id="c"><path d="M0 0h240v240H0z"/></clipPath><clipPath id="b"><path d="M0 0h240v240H0z"/></clipPath></defs><g clip-path="url(#a)"><g class="5" clip-path="url(#b)" style="display:block"><path fill="#121330" d="M61.992 0H-41.68l-18.643-72.5H90.322L74.101-9.385A12.5 12.5 0 0 1 61.992 0m43.935-84.6a7.5 7.5 0 0 0-5.928-2.9h-200a7.5 7.5 0 0 0 0 15h24.18L-55.44 6.768-42.725 15H61.992c12.55 0 23.504-8.499 26.63-20.654l18.643-72.481a7.51 7.51 0 0 0-1.338-6.465" class="primary" style="display:block" transform="translate(117.501 127.5)"/><path fill="#121330" d="M64.814 2.177H-45.085l-19.762-76.854H94.846L77.651-7.771a13.254 13.254 0 0 1-12.837 9.948M42.499 60c0-6.904 5.596-12.5 12.5-12.5s12.5 5.596 12.5 12.5-5.596 12.5-12.5 12.5-12.5-5.596-12.5-12.5m-105 0c0-6.904 5.596-12.5 12.5-12.5s12.5 5.596 12.5 12.5-5.596 12.5-12.5 12.5-12.5-5.596-12.5-12.5M-44.71 2.685l-10.73 4.083-18.613 39.902A27.4 27.4 0 0 0-77.501 60c0 15.188 12.312 27.5 27.5 27.5s27.5-12.312 27.5-27.5c0-4.506-1.106-8.747-3.027-12.5h56.055A27.35 27.35 0 0 0 27.499 60c0 15.188 12.312 27.5 27.5 27.5s27.5-12.312 27.5-27.5c0-14.926-11.892-27.047-26.718-27.461a8 8 0 0 0-.782-.039h-105c-.304 0-.606.029-.908.039L-42.725 15z" class="primary" style="display:block" transform="translate(117.501 127.5)"/><path class="primary" style="display:none"/><path class="primary" style="display:none"/></g><g clip-path="url(#c)" style="display:none"><path class="primary" style="display:none"/><path class="primary" style="display:none"/></g><g clip-path="url(#d)" style="display:none"><path class="primary" style="display:none"/><path class="primary" style="display:none"/><path class="primary" style="display:none"/><path class="primary" style="display:none"/></g><g clip-path="url(#e)" style="display:none"><path class="primary" style="display:none"/><path class="primary" style="display:none"/></g></g></svg>