<svg xmlns="http://www.w3.org/2000/svg" width="240" height="240" style="width:100%;height:100%;transform:translate3d(0,0,0);content-visibility:visible" viewBox="0 0 240 240"><defs><clipPath id="d"><path d="M0 0h240v240H0z"/></clipPath><clipPath id="h"><path d="M0 0h240v240H0z"/></clipPath><clipPath id="g"><path d="M0 0h240v240H0z"/></clipPath><clipPath id="e"><path d="M0 0h240v240H0z"/></clipPath><mask id="j" mask-type="alpha"><use xmlns:ns1="http://www.w3.org/1999/xlink" ns1:href="#a"/></mask><mask id="i" mask-type="alpha"><use xmlns:ns2="http://www.w3.org/1999/xlink" ns2:href="#b"/></mask><mask id="f" mask-type="alpha"><use xmlns:ns3="http://www.w3.org/1999/xlink" ns3:href="#c"/></mask><path id="a" fill="#121331" d="M0 91.154c50.343 0 91.154-40.811 91.154-91.154S50.343-91.154 0-91.154-91.154-50.343-91.154 0-50.343 91.154 0 91.154" style="display:block" transform="translate(120 120)"/><path id="b" fill="#121331" d="M0 91.154c50.343 0 91.154-40.811 91.154-91.154S50.343-91.154 0-91.154-91.154-50.343-91.154 0-50.343 91.154 0 91.154" style="display:block" transform="translate(120 120)"/><g id="c" style="display:none"><path/><path/></g></defs><g clip-path="url(#d)"><g class="5" clip-path="url(#e)" style="display:none"><path class="primary" style="display:none"/><path class="primary" style="display:none"/><g mask="url(#f)" style="display:none"><path class="primary"/></g></g><g clip-path="url(#g)" style="display:none"><path class="primary" style="display:none"/><path class="primary" style="display:none"/></g><g clip-path="url(#h)" style="display:block"><g mask="url(#i)" style="display:block"><path d="M120 135c22.091 0 40-17.909 40-40s-17.909-40-40-40-40 17.909-40 40 17.909 40 40 40m0-65c13.807 0 25 11.193 25 25s-11.193 25-25 25-25-11.193-25-25 11.193-25 25-25" class="primary"/></g><g mask="url(#j)" style="display:block"><path d="M182.5 235a7.5 7.5 0 0 0 7.5-7.5v-30c0-26.234-21.266-47.5-47.5-47.5h-45C71.266 150 50 171.266 50 197.5v30a7.5 7.5 0 0 0 7.5 7.5zm-40-70c17.949 0 32.5 14.551 32.5 32.5V220H65v-22.5c0-17.949 14.551-32.5 32.5-32.5z" class="primary"/></g><path d="M0 100c55.228 0 100-44.772 100-100S55.228-100 0-100-100-55.228-100 0-55.228 100 0 100M0-85c46.944 0 85 38.056 85 85S46.944 85 0 85-85 46.944-85 0s38.056-85 85-85" class="primary" style="display:block" transform="translate(120 120)"/></g></g></svg>